<mxfile host="Electron" agent="Mozilla/5.0 (Windows NT 10.0; Win64; x64) AppleWebKit/537.36 (KHTML, like Gecko) draw.io/27.0.5 Chrome/134.0.6998.205 Electron/35.3.0 Safari/537.36" version="27.0.5">
  <diagram id="C5RBs43oDa-KdzZeNtuy" name="Componentes">
    <mxGraphModel dx="933" dy="1051" grid="1" gridSize="10" guides="1" tooltips="1" connect="1" arrows="1" fold="1" page="1" pageScale="1" pageWidth="850" pageHeight="1100" math="0" shadow="0">
      <root>
        <mxCell id="WIyWlLk6GJQsqaUBKTNV-0" />
        <mxCell id="WIyWlLk6GJQsqaUBKTNV-1" parent="WIyWlLk6GJQsqaUBKTNV-0" />
        <mxCell id="s4hUxg75_TmqoVt2xTle-6" value="&lt;span style=&quot;font-weight: 700; text-align: center;&quot;&gt;Servidor Java Spring-Boot&lt;/span&gt;" style="text;strokeColor=none;fillColor=none;spacingLeft=4;spacingRight=4;overflow=hidden;rotatable=0;points=[[0,0.5],[1,0.5]];portConstraint=eastwest;fontSize=16;whiteSpace=wrap;html=1;" vertex="1" parent="WIyWlLk6GJQsqaUBKTNV-1">
          <mxGeometry x="860" y="10" width="230" height="35.24" as="geometry" />
        </mxCell>
        <mxCell id="s4hUxg75_TmqoVt2xTle-14" style="edgeStyle=orthogonalEdgeStyle;rounded=0;orthogonalLoop=1;jettySize=auto;html=1;exitX=0.153;exitY=0.996;exitDx=0;exitDy=0;exitPerimeter=0;entryX=0.25;entryY=0;entryDx=0;entryDy=0;endArrow=open;endFill=0;endSize=15;dashed=1;dashPattern=8 8;" edge="1" parent="WIyWlLk6GJQsqaUBKTNV-1" source="s4hUxg75_TmqoVt2xTle-17" target="s4hUxg75_TmqoVt2xTle-19">
          <mxGeometry relative="1" as="geometry">
            <Array as="points" />
          </mxGeometry>
        </mxCell>
        <mxCell id="s4hUxg75_TmqoVt2xTle-16" value="" style="group" vertex="1" connectable="0" parent="WIyWlLk6GJQsqaUBKTNV-1">
          <mxGeometry x="870" y="297" width="351" height="193" as="geometry" />
        </mxCell>
        <mxCell id="s4hUxg75_TmqoVt2xTle-17" value="" style="shape=folder;fontStyle=1;spacingTop=10;tabWidth=220;tabHeight=20;tabPosition=left;html=1;whiteSpace=wrap;" vertex="1" parent="s4hUxg75_TmqoVt2xTle-16">
          <mxGeometry y="3" width="310" height="190" as="geometry" />
        </mxCell>
        <mxCell id="s4hUxg75_TmqoVt2xTle-18" value="&lt;span style=&quot;color: rgb(0, 0, 0); font-family: Helvetica; font-size: 12px; font-style: normal; font-variant-ligatures: normal; font-variant-caps: normal; font-weight: 700; letter-spacing: normal; orphans: 2; text-align: center; text-indent: 0px; text-transform: none; widows: 2; word-spacing: 0px; -webkit-text-stroke-width: 0px; white-space: normal; background-color: rgb(236, 236, 236); text-decoration-thickness: initial; text-decoration-style: initial; text-decoration-color: initial; display: inline !important; float: none;&quot;&gt;com.example.PruebaCRUD.Services&lt;/span&gt;" style="text;whiteSpace=wrap;html=1;" vertex="1" parent="s4hUxg75_TmqoVt2xTle-16">
          <mxGeometry x="3" width="210" height="30" as="geometry" />
        </mxCell>
        <mxCell id="s4hUxg75_TmqoVt2xTle-20" value="" style="group" vertex="1" connectable="0" parent="WIyWlLk6GJQsqaUBKTNV-1">
          <mxGeometry x="1170" y="70" width="307" height="190" as="geometry" />
        </mxCell>
        <mxCell id="s4hUxg75_TmqoVt2xTle-21" value="" style="shape=folder;fontStyle=1;spacingTop=10;tabWidth=230;tabHeight=20;tabPosition=left;html=1;whiteSpace=wrap;" vertex="1" parent="s4hUxg75_TmqoVt2xTle-20">
          <mxGeometry y="5.17509727626459" width="307" height="184.82490272373542" as="geometry" />
        </mxCell>
        <mxCell id="s4hUxg75_TmqoVt2xTle-22" value="&lt;span style=&quot;color: rgb(0, 0, 0); font-family: Helvetica; font-style: normal; font-variant-ligatures: normal; font-variant-caps: normal; font-weight: 700; letter-spacing: normal; orphans: 2; text-align: center; text-indent: 0px; text-transform: none; widows: 2; word-spacing: 0px; -webkit-text-stroke-width: 0px; white-space: normal; background-color: rgb(236, 236, 236); text-decoration-thickness: initial; text-decoration-style: initial; text-decoration-color: initial; float: none; display: inline !important;&quot;&gt;com.example.PruebaCRUD.Controllers&lt;/span&gt;" style="text;whiteSpace=wrap;html=1;fontSize=12;" vertex="1" parent="s4hUxg75_TmqoVt2xTle-20">
          <mxGeometry width="141.14942528735634" height="21.744106202792402" as="geometry" />
        </mxCell>
        <mxCell id="s4hUxg75_TmqoVt2xTle-23" value="" style="endArrow=open;endFill=0;endSize=12;html=1;rounded=0;exitX=0;exitY=0;exitDx=0;exitDy=57.5;exitPerimeter=0;entryX=0.25;entryY=0;entryDx=0;entryDy=0;" edge="1" parent="WIyWlLk6GJQsqaUBKTNV-1" source="s4hUxg75_TmqoVt2xTle-21" target="s4hUxg75_TmqoVt2xTle-18">
          <mxGeometry width="160" relative="1" as="geometry">
            <mxPoint x="1190" y="340" as="sourcePoint" />
            <mxPoint x="1350" y="340" as="targetPoint" />
            <Array as="points">
              <mxPoint x="926" y="132" />
            </Array>
          </mxGeometry>
        </mxCell>
        <mxCell id="s4hUxg75_TmqoVt2xTle-12" value="" style="endArrow=open;endFill=0;endSize=12;html=1;rounded=0;entryX=0;entryY=0;entryDx=0;entryDy=102;entryPerimeter=0;exitX=0;exitY=0;exitDx=310;exitDy=105;exitPerimeter=0;" edge="1" parent="WIyWlLk6GJQsqaUBKTNV-1" source="s4hUxg75_TmqoVt2xTle-17" target="s4hUxg75_TmqoVt2xTle-7">
          <mxGeometry width="160" relative="1" as="geometry">
            <mxPoint x="1360" y="152" as="sourcePoint" />
            <mxPoint x="1480" y="150" as="targetPoint" />
          </mxGeometry>
        </mxCell>
        <mxCell id="s4hUxg75_TmqoVt2xTle-26" style="edgeStyle=orthogonalEdgeStyle;rounded=0;orthogonalLoop=1;jettySize=auto;html=1;exitX=0.25;exitY=1;exitDx=0;exitDy=0;exitPerimeter=0;entryX=0.359;entryY=0.116;entryDx=0;entryDy=0;endArrow=open;endFill=0;endSize=15;dashed=1;dashPattern=8 8;entryPerimeter=0;" edge="1" parent="WIyWlLk6GJQsqaUBKTNV-1" source="s4hUxg75_TmqoVt2xTle-7" target="s4hUxg75_TmqoVt2xTle-25">
          <mxGeometry relative="1" as="geometry">
            <Array as="points" />
            <mxPoint x="1400" y="493" as="sourcePoint" />
            <mxPoint x="1401" y="640" as="targetPoint" />
          </mxGeometry>
        </mxCell>
        <mxCell id="s4hUxg75_TmqoVt2xTle-27" value="" style="group" vertex="1" connectable="0" parent="WIyWlLk6GJQsqaUBKTNV-1">
          <mxGeometry x="1260" y="637" width="310" height="193" as="geometry" />
        </mxCell>
        <mxCell id="s4hUxg75_TmqoVt2xTle-9" value="" style="shape=folder;fontStyle=1;spacingTop=10;tabWidth=210;tabHeight=20;tabPosition=left;html=1;whiteSpace=wrap;" vertex="1" parent="s4hUxg75_TmqoVt2xTle-27">
          <mxGeometry y="3" width="310" height="190" as="geometry" />
        </mxCell>
        <mxCell id="s4hUxg75_TmqoVt2xTle-25" value="&lt;span style=&quot;color: rgb(0, 0, 0); font-family: Helvetica; font-size: 12px; font-style: normal; font-variant-ligatures: normal; font-variant-caps: normal; font-weight: 700; letter-spacing: normal; orphans: 2; text-align: center; text-indent: 0px; text-transform: none; widows: 2; word-spacing: 0px; -webkit-text-stroke-width: 0px; white-space: normal; background-color: rgb(236, 236, 236); text-decoration-thickness: initial; text-decoration-style: initial; text-decoration-color: initial; display: inline !important; float: none;&quot;&gt;com.example.PruebaCRUD.Entitties&lt;/span&gt;" style="text;whiteSpace=wrap;html=1;" vertex="1" parent="s4hUxg75_TmqoVt2xTle-27">
          <mxGeometry x="1" width="210" height="20" as="geometry" />
        </mxCell>
        <mxCell id="s4hUxg75_TmqoVt2xTle-28" value="" style="group" vertex="1" connectable="0" parent="WIyWlLk6GJQsqaUBKTNV-1">
          <mxGeometry x="870" y="636" width="310" height="194" as="geometry" />
        </mxCell>
        <mxCell id="s4hUxg75_TmqoVt2xTle-8" value="" style="shape=folder;fontStyle=1;spacingTop=10;tabWidth=190;tabHeight=20;tabPosition=left;html=1;whiteSpace=wrap;" vertex="1" parent="s4hUxg75_TmqoVt2xTle-28">
          <mxGeometry y="4" width="310" height="190" as="geometry" />
        </mxCell>
        <mxCell id="s4hUxg75_TmqoVt2xTle-19" value="&lt;span style=&quot;color: rgb(0, 0, 0); font-family: Helvetica; font-size: 12px; font-style: normal; font-variant-ligatures: normal; font-variant-caps: normal; font-weight: 700; letter-spacing: normal; orphans: 2; text-align: center; text-indent: 0px; text-transform: none; widows: 2; word-spacing: 0px; -webkit-text-stroke-width: 0px; white-space: normal; background-color: rgb(236, 236, 236); text-decoration-thickness: initial; text-decoration-style: initial; text-decoration-color: initial; display: inline !important; float: none;&quot;&gt;com.example.PruebaCRUD.DTO&lt;/span&gt;" style="text;whiteSpace=wrap;html=1;" vertex="1" parent="s4hUxg75_TmqoVt2xTle-28">
          <mxGeometry width="190" height="20" as="geometry" />
        </mxCell>
        <mxCell id="s4hUxg75_TmqoVt2xTle-29" value="" style="group" vertex="1" connectable="0" parent="WIyWlLk6GJQsqaUBKTNV-1">
          <mxGeometry x="1260" y="297" width="309" height="196" as="geometry" />
        </mxCell>
        <mxCell id="s4hUxg75_TmqoVt2xTle-7" value="" style="shape=folder;fontStyle=1;spacingTop=10;tabWidth=240;tabHeight=17;tabPosition=left;html=1;whiteSpace=wrap;" vertex="1" parent="s4hUxg75_TmqoVt2xTle-29">
          <mxGeometry y="6" width="309" height="190" as="geometry" />
        </mxCell>
        <mxCell id="s4hUxg75_TmqoVt2xTle-24" value="&lt;span style=&quot;color: rgb(0, 0, 0); font-family: Helvetica; font-size: 12px; font-style: normal; font-variant-ligatures: normal; font-variant-caps: normal; font-weight: 700; letter-spacing: normal; orphans: 2; text-align: center; text-indent: 0px; text-transform: none; widows: 2; word-spacing: 0px; -webkit-text-stroke-width: 0px; white-space: normal; background-color: rgb(236, 236, 236); text-decoration-thickness: initial; text-decoration-style: initial; text-decoration-color: initial; display: inline !important; float: none;&quot;&gt;com.example.PruebaCRUD.Repositories&lt;/span&gt;" style="text;whiteSpace=wrap;html=1;" vertex="1" parent="s4hUxg75_TmqoVt2xTle-29">
          <mxGeometry width="260" height="20" as="geometry" />
        </mxCell>
        <mxCell id="s4hUxg75_TmqoVt2xTle-32" style="edgeStyle=orthogonalEdgeStyle;rounded=0;orthogonalLoop=1;jettySize=auto;html=1;exitX=0;exitY=0;exitDx=307;exitDy=102.41245136186771;exitPerimeter=0;entryX=0.468;entryY=1.003;entryDx=0;entryDy=0;endArrow=open;endFill=0;endSize=15;dashed=1;dashPattern=8 8;entryPerimeter=0;" edge="1" parent="WIyWlLk6GJQsqaUBKTNV-1" source="s4hUxg75_TmqoVt2xTle-21" target="s4hUxg75_TmqoVt2xTle-8">
          <mxGeometry relative="1" as="geometry">
            <Array as="points">
              <mxPoint x="1630" y="178" />
              <mxPoint x="1630" y="860" />
              <mxPoint x="1015" y="860" />
            </Array>
            <mxPoint x="1347" y="503" as="sourcePoint" />
            <mxPoint x="1346" y="649" as="targetPoint" />
          </mxGeometry>
        </mxCell>
      </root>
    </mxGraphModel>
  </diagram>
</mxfile>
